<svg xmlns="http://www.w3.org/2000/svg" width="1280" height="800" viewBox="0 0 1280 800" role="img" aria-labelledby="title desc">
<title id="title">Margem medida entre estabilização dos literais e PCLK</title>
<desc id="desc">Grade de 96 casos no perfil SS, 1,62 volts e menos 40 graus Celsius, com doze transições de endereço por fase. A linha mostra a menor margem medida. A linha tracejada em 250 ps indica o guard experimental.</desc>
<rect width="100%" height="100%" fill="#101827"/>
<style>text{font-family:system-ui,-apple-system,Segoe UI,sans-serif;fill:#e9eef5}.muted{fill:#aebbd0}.grid{stroke:#334258;stroke-width:1}.axis{stroke:#8190a7;stroke-width:1.5}.point{fill:#9ab0c9;fill-opacity:.48}.minline{fill:none;stroke:#62e0c1;stroke-width:4;stroke-linejoin:round;stroke-linecap:round}.minpoint{fill:#62e0c1;stroke:#101827;stroke-width:2}.guard{stroke:#ffcf70;stroke-width:3;stroke-dasharray:10 8}.recommended{stroke:#ffcf70;stroke-width:2;stroke-dasharray:6 7;opacity:.8}</style>
<text x="125" y="43" font-size="27" font-weight="750">Captura → PCLK: menor margem de estabilização dos literais</text>
<text x="125" y="70" class="muted" font-size="16">B7 pré-layout · SS / 1,62 V / −40 °C · carga stress de 9,00 fF no Q do registrador · 12 transições por fase</text>
<rect x="125" y="90.0" width="1085" height="194.0" fill="#62e0c1" fill-opacity=".075"/>
<rect x="125" y="284.0" width="1085" height="296.0" fill="#ff8e8e" fill-opacity=".045"/>
<line class="grid" x1="125" y1="539.2" x2="1210" y2="539.2"/>
<text x="109" y="545.2" text-anchor="end" class="muted" font-size="15">-1000</text>
<line class="grid" x1="125" y1="437.1" x2="1210" y2="437.1"/>
<text x="109" y="443.1" text-anchor="end" class="muted" font-size="15">-500</text>
<line class="grid" x1="125" y1="335.0" x2="1210" y2="335.0"/>
<text x="109" y="341.0" text-anchor="end" class="muted" font-size="15">0</text>
<line class="grid" x1="125" y1="284.0" x2="1210" y2="284.0"/>
<text x="109" y="290.0" text-anchor="end" class="muted" font-size="15">250</text>
<line class="grid" x1="125" y1="232.9" x2="1210" y2="232.9"/>
<text x="109" y="238.9" text-anchor="end" class="muted" font-size="15">500</text>
<line class="grid" x1="125" y1="130.8" x2="1210" y2="130.8"/>
<text x="109" y="136.8" text-anchor="end" class="muted" font-size="15">1000</text>
<line class="guard" x1="125" y1="284.0" x2="1210" y2="284.0"/>
<text x="1202" y="274.0" text-anchor="end" fill="#ffcf70" font-size="15">guard experimental: 250 ps</text>
<line class="recommended" x1="900.0" y1="90" x2="900.0" y2="580"/>
<circle class="point" cx="108.0" cy="542.6" r="5"><title>slow_stress_a0_to_1_p0ps: -1016.6 ps</title></circle>
<circle class="point" cx="111.0" cy="540.0" r="5"><title>slow_stress_a0_to_2_p0ps: -1003.8 ps</title></circle>
<circle class="point" cx="114.2" cy="542.7" r="5"><title>slow_stress_a0_to_3_p0ps: -1017.2 ps</title></circle>
<circle class="point" cx="117.2" cy="566.4" r="5"><title>slow_stress_a1_to_0_p0ps: -1133.3 ps</title></circle>
<circle class="point" cx="120.3" cy="566.1" r="5"><title>slow_stress_a1_to_2_p0ps: -1131.7 ps</title></circle>
<circle class="point" cx="123.5" cy="540.0" r="5"><title>slow_stress_a1_to_3_p0ps: -1003.9 ps</title></circle>
<circle class="point" cx="126.5" cy="562.0" r="5"><title>slow_stress_a2_to_0_p0ps: -1111.8 ps</title></circle>
<circle class="point" cx="129.7" cy="564.9" r="5"><title>slow_stress_a2_to_1_p0ps: -1126.2 ps</title></circle>
<circle class="point" cx="132.8" cy="542.5" r="5"><title>slow_stress_a2_to_3_p0ps: -1016.5 ps</title></circle>
<circle class="point" cx="135.8" cy="565.7" r="5"><title>slow_stress_a3_to_0_p0ps: -1130.2 ps</title></circle>
<circle class="point" cx="138.9" cy="562.0" r="5"><title>slow_stress_a3_to_1_p0ps: -1111.8 ps</title></circle>
<circle class="point" cx="142.1" cy="566.4" r="5"><title>slow_stress_a3_to_2_p0ps: -1133.5 ps</title></circle>
<text x="125.0" y="610" text-anchor="middle" class="muted" font-size="14">0</text>
<circle class="point" cx="262.9" cy="439.3" r="5"><title>slow_stress_a0_to_1_p500ps: -510.7 ps</title></circle>
<circle class="point" cx="266.1" cy="437.0" r="5"><title>slow_stress_a0_to_2_p500ps: -499.8 ps</title></circle>
<circle class="point" cx="269.1" cy="439.4" r="5"><title>slow_stress_a0_to_3_p500ps: -511.2 ps</title></circle>
<circle class="point" cx="272.2" cy="464.3" r="5"><title>slow_stress_a1_to_0_p500ps: -633.4 ps</title></circle>
<circle class="point" cx="275.4" cy="464.1" r="5"><title>slow_stress_a1_to_2_p500ps: -632.1 ps</title></circle>
<circle class="point" cx="278.4" cy="437.1" r="5"><title>slow_stress_a1_to_3_p500ps: -499.9 ps</title></circle>
<circle class="point" cx="281.6" cy="459.9" r="5"><title>slow_stress_a2_to_0_p500ps: -611.6 ps</title></circle>
<circle class="point" cx="284.6" cy="462.5" r="5"><title>slow_stress_a2_to_1_p500ps: -624.6 ps</title></circle>
<circle class="point" cx="287.8" cy="439.2" r="5"><title>slow_stress_a2_to_3_p500ps: -510.5 ps</title></circle>
<circle class="point" cx="290.9" cy="463.7" r="5"><title>slow_stress_a3_to_0_p500ps: -630.4 ps</title></circle>
<circle class="point" cx="293.9" cy="459.8" r="5"><title>slow_stress_a3_to_1_p500ps: -611.5 ps</title></circle>
<circle class="point" cx="297.1" cy="464.4" r="5"><title>slow_stress_a3_to_2_p500ps: -633.8 ps</title></circle>
<text x="280.0" y="610" text-anchor="middle" class="muted" font-size="14">0.5</text>
<circle class="point" cx="417.9" cy="386.0" r="5"><title>slow_stress_a0_to_1_p750ps: -249.9 ps</title></circle>
<circle class="point" cx="421.1" cy="384.8" r="5"><title>slow_stress_a0_to_2_p750ps: -243.9 ps</title></circle>
<circle class="point" cx="424.1" cy="386.0" r="5"><title>slow_stress_a0_to_3_p750ps: -249.7 ps</title></circle>
<circle class="point" cx="427.2" cy="415.5" r="5"><title>slow_stress_a1_to_0_p750ps: -394.5 ps</title></circle>
<circle class="point" cx="430.4" cy="415.4" r="5"><title>slow_stress_a1_to_2_p750ps: -394.0 ps</title></circle>
<circle class="point" cx="433.4" cy="384.8" r="5"><title>slow_stress_a1_to_3_p750ps: -243.9 ps</title></circle>
<circle class="point" cx="436.6" cy="410.0" r="5"><title>slow_stress_a2_to_0_p750ps: -367.3 ps</title></circle>
<circle class="point" cx="439.6" cy="411.7" r="5"><title>slow_stress_a2_to_1_p750ps: -375.8 ps</title></circle>
<circle class="point" cx="442.8" cy="386.0" r="5"><title>slow_stress_a2_to_3_p750ps: -249.6 ps</title></circle>
<circle class="point" cx="445.9" cy="415.0" r="5"><title>slow_stress_a3_to_0_p750ps: -391.7 ps</title></circle>
<circle class="point" cx="448.9" cy="409.9" r="5"><title>slow_stress_a3_to_1_p750ps: -367.1 ps</title></circle>
<circle class="point" cx="452.1" cy="415.6" r="5"><title>slow_stress_a3_to_2_p750ps: -394.9 ps</title></circle>
<text x="435.0" y="610" text-anchor="middle" class="muted" font-size="14">0.75</text>
<circle class="point" cx="573.0" cy="333.9" r="5"><title>slow_stress_a0_to_1_p1000ps: 5.5 ps</title></circle>
<circle class="point" cx="576.0" cy="333.8" r="5"><title>slow_stress_a0_to_2_p1000ps: 5.9 ps</title></circle>
<circle class="point" cx="579.1" cy="333.7" r="5"><title>slow_stress_a0_to_3_p1000ps: 6.3 ps</title></circle>
<circle class="point" cx="582.2" cy="368.5" r="5"><title>slow_stress_a1_to_0_p1000ps: -163.9 ps</title></circle>
<circle class="point" cx="585.4" cy="368.7" r="5"><title>slow_stress_a1_to_2_p1000ps: -165.1 ps</title></circle>
<circle class="point" cx="588.5" cy="333.8" r="5"><title>slow_stress_a1_to_3_p1000ps: 5.9 ps</title></circle>
<circle class="point" cx="591.5" cy="362.6" r="5"><title>slow_stress_a2_to_0_p1000ps: -135.3 ps</title></circle>
<circle class="point" cx="594.6" cy="361.9" r="5"><title>slow_stress_a2_to_1_p1000ps: -131.6 ps</title></circle>
<circle class="point" cx="597.8" cy="333.9" r="5"><title>slow_stress_a2_to_3_p1000ps: 5.5 ps</title></circle>
<circle class="point" cx="600.9" cy="368.3" r="5"><title>slow_stress_a3_to_0_p1000ps: -162.9 ps</title></circle>
<circle class="point" cx="604.0" cy="362.9" r="5"><title>slow_stress_a3_to_1_p1000ps: -136.4 ps</title></circle>
<circle class="point" cx="607.0" cy="368.6" r="5"><title>slow_stress_a3_to_2_p1000ps: -164.3 ps</title></circle>
<text x="590.0" y="610" text-anchor="middle" class="muted" font-size="14">1</text>
<circle class="point" cx="728.0" cy="282.9" r="5"><title>slow_stress_a0_to_1_p1250ps: 255.0 ps</title></circle>
<circle class="point" cx="731.0" cy="282.8" r="5"><title>slow_stress_a0_to_2_p1250ps: 255.7 ps</title></circle>
<circle class="point" cx="734.1" cy="282.7" r="5"><title>slow_stress_a0_to_3_p1250ps: 256.0 ps</title></circle>
<circle class="point" cx="737.2" cy="298.0" r="5"><title>slow_stress_a1_to_0_p1250ps: 181.2 ps</title></circle>
<circle class="point" cx="740.4" cy="296.7" r="5"><title>slow_stress_a1_to_2_p1250ps: 187.7 ps</title></circle>
<circle class="point" cx="743.5" cy="282.8" r="5"><title>slow_stress_a1_to_3_p1250ps: 255.7 ps</title></circle>
<circle class="point" cx="746.5" cy="296.8" r="5"><title>slow_stress_a2_to_0_p1250ps: 187.2 ps</title></circle>
<circle class="point" cx="749.6" cy="296.7" r="5"><title>slow_stress_a2_to_1_p1250ps: 187.7 ps</title></circle>
<circle class="point" cx="752.8" cy="282.9" r="5"><title>slow_stress_a2_to_3_p1250ps: 255.0 ps</title></circle>
<circle class="point" cx="755.9" cy="297.3" r="5"><title>slow_stress_a3_to_0_p1250ps: 184.6 ps</title></circle>
<circle class="point" cx="759.0" cy="296.8" r="5"><title>slow_stress_a3_to_1_p1250ps: 187.2 ps</title></circle>
<circle class="point" cx="762.0" cy="298.0" r="5"><title>slow_stress_a3_to_2_p1250ps: 181.2 ps</title></circle>
<text x="745.0" y="610" text-anchor="middle" class="muted" font-size="14">1.25</text>
<circle class="point" cx="883.0" cy="231.9" r="5"><title>slow_stress_a0_to_1_p1500ps: 505.0 ps</title></circle>
<circle class="point" cx="886.0" cy="231.8" r="5"><title>slow_stress_a0_to_2_p1500ps: 505.7 ps</title></circle>
<circle class="point" cx="889.1" cy="231.7" r="5"><title>slow_stress_a0_to_3_p1500ps: 506.0 ps</title></circle>
<circle class="point" cx="892.2" cy="247.0" r="5"><title>slow_stress_a1_to_0_p1500ps: 431.2 ps</title></circle>
<circle class="point" cx="895.4" cy="245.6" r="5"><title>slow_stress_a1_to_2_p1500ps: 437.7 ps</title></circle>
<circle class="point" cx="898.5" cy="231.8" r="5"><title>slow_stress_a1_to_3_p1500ps: 505.7 ps</title></circle>
<circle class="point" cx="901.5" cy="245.7" r="5"><title>slow_stress_a2_to_0_p1500ps: 437.2 ps</title></circle>
<circle class="point" cx="904.6" cy="245.6" r="5"><title>slow_stress_a2_to_1_p1500ps: 437.7 ps</title></circle>
<circle class="point" cx="907.8" cy="231.9" r="5"><title>slow_stress_a2_to_3_p1500ps: 505.0 ps</title></circle>
<circle class="point" cx="910.9" cy="246.3" r="5"><title>slow_stress_a3_to_0_p1500ps: 434.6 ps</title></circle>
<circle class="point" cx="914.0" cy="245.7" r="5"><title>slow_stress_a3_to_1_p1500ps: 437.2 ps</title></circle>
<circle class="point" cx="917.0" cy="247.0" r="5"><title>slow_stress_a3_to_2_p1500ps: 431.2 ps</title></circle>
<text x="900.0" y="610" text-anchor="middle" class="muted" font-size="14">1.5</text>
<circle class="point" cx="1038.0" cy="180.8" r="5"><title>slow_stress_a0_to_1_p1750ps: 755.0 ps</title></circle>
<circle class="point" cx="1041.0" cy="180.7" r="5"><title>slow_stress_a0_to_2_p1750ps: 755.7 ps</title></circle>
<circle class="point" cx="1044.2" cy="180.6" r="5"><title>slow_stress_a0_to_3_p1750ps: 756.0 ps</title></circle>
<circle class="point" cx="1047.2" cy="195.9" r="5"><title>slow_stress_a1_to_0_p1750ps: 681.2 ps</title></circle>
<circle class="point" cx="1050.3" cy="194.6" r="5"><title>slow_stress_a1_to_2_p1750ps: 687.7 ps</title></circle>
<circle class="point" cx="1053.5" cy="180.7" r="5"><title>slow_stress_a1_to_3_p1750ps: 755.7 ps</title></circle>
<circle class="point" cx="1056.5" cy="194.7" r="5"><title>slow_stress_a2_to_0_p1750ps: 687.2 ps</title></circle>
<circle class="point" cx="1059.7" cy="194.6" r="5"><title>slow_stress_a2_to_1_p1750ps: 687.7 ps</title></circle>
<circle class="point" cx="1062.8" cy="180.8" r="5"><title>slow_stress_a2_to_3_p1750ps: 755.0 ps</title></circle>
<circle class="point" cx="1065.8" cy="195.2" r="5"><title>slow_stress_a3_to_0_p1750ps: 684.6 ps</title></circle>
<circle class="point" cx="1069.0" cy="194.7" r="5"><title>slow_stress_a3_to_1_p1750ps: 687.2 ps</title></circle>
<circle class="point" cx="1072.0" cy="195.9" r="5"><title>slow_stress_a3_to_2_p1750ps: 681.2 ps</title></circle>
<text x="1055.0" y="610" text-anchor="middle" class="muted" font-size="14">1.75</text>
<circle class="point" cx="1193.0" cy="129.8" r="5"><title>slow_stress_a0_to_1_p2000ps: 1005.0 ps</title></circle>
<circle class="point" cx="1196.0" cy="129.7" r="5"><title>slow_stress_a0_to_2_p2000ps: 1005.7 ps</title></circle>
<circle class="point" cx="1199.2" cy="129.6" r="5"><title>slow_stress_a0_to_3_p2000ps: 1006.0 ps</title></circle>
<circle class="point" cx="1202.2" cy="144.9" r="5"><title>slow_stress_a1_to_0_p2000ps: 931.2 ps</title></circle>
<circle class="point" cx="1205.3" cy="143.6" r="5"><title>slow_stress_a1_to_2_p2000ps: 937.7 ps</title></circle>
<circle class="point" cx="1208.5" cy="129.7" r="5"><title>slow_stress_a1_to_3_p2000ps: 1005.7 ps</title></circle>
<circle class="point" cx="1211.5" cy="143.6" r="5"><title>slow_stress_a2_to_0_p2000ps: 937.2 ps</title></circle>
<circle class="point" cx="1214.7" cy="143.5" r="5"><title>slow_stress_a2_to_1_p2000ps: 937.7 ps</title></circle>
<circle class="point" cx="1217.8" cy="129.8" r="5"><title>slow_stress_a2_to_3_p2000ps: 1005.0 ps</title></circle>
<circle class="point" cx="1220.8" cy="144.2" r="5"><title>slow_stress_a3_to_0_p2000ps: 934.6 ps</title></circle>
<circle class="point" cx="1224.0" cy="143.6" r="5"><title>slow_stress_a3_to_1_p2000ps: 937.2 ps</title></circle>
<circle class="point" cx="1227.0" cy="144.9" r="5"><title>slow_stress_a3_to_2_p2000ps: 931.2 ps</title></circle>
<text x="1210.0" y="610" text-anchor="middle" class="muted" font-size="14">2</text>
<path class="minline" d="M125.0,566.4 L280.0,464.4 L435.0,415.6 L590.0,368.7 L745.0,298.0 L900.0,247.0 L1055.0,195.9 L1210.0,144.9"/>
<circle class="minpoint" cx="125.0" cy="566.4" r="7"><title>Fase 0 ps: pior lead -1133.5 ps</title></circle>
<circle class="minpoint" cx="280.0" cy="464.4" r="7"><title>Fase 500 ps: pior lead -633.8 ps</title></circle>
<circle class="minpoint" cx="435.0" cy="415.6" r="7"><title>Fase 750 ps: pior lead -394.9 ps</title></circle>
<circle class="minpoint" cx="590.0" cy="368.7" r="7"><title>Fase 1000 ps: pior lead -165.1 ps</title></circle>
<circle class="minpoint" cx="745.0" cy="298.0" r="7"><title>Fase 1250 ps: pior lead 181.2 ps</title></circle>
<text x="745.0" y="284.0" text-anchor="middle" fill="#62e0c1" font-size="14" font-weight="700">181 ps</text>
<circle class="minpoint" cx="900.0" cy="247.0" r="7"><title>Fase 1500 ps: pior lead 431.2 ps</title></circle>
<text x="900.0" y="233.0" text-anchor="middle" fill="#62e0c1" font-size="14" font-weight="700">431 ps</text>
<circle class="minpoint" cx="1055.0" cy="195.9" r="7"><title>Fase 1750 ps: pior lead 681.2 ps</title></circle>
<circle class="minpoint" cx="1210.0" cy="144.9" r="7"><title>Fase 2000 ps: pior lead 931.2 ps</title></circle>
<line class="axis" x1="125" y1="580" x2="1210" y2="580"/>
<line class="axis" x1="125" y1="90" x2="125" y2="580"/>
<text x="667.5" y="690" text-anchor="middle" font-size="17">Atraso captura → cruzamento de 50% de PCLK (ns)</text>
<text x="38" y="335.0" text-anchor="middle" font-size="17" transform="rotate(-90 38 335.0)">Lead do último literal estabilizado até PCLK (ps)</text>
<circle cx="152" cy="735" r="5" class="point"/><text x="168" y="741" class="muted" font-size="14">12 transições por fase</text>
<line x1="380" y1="735" x2="430" y2="735" class="minline"/><text x="441" y="741" class="muted" font-size="14">pior caso por fase</text>
<text x="720" y="741" fill="#ffcf70" font-size="14">fase de 1,50 ns selecionada para os próximos testes</text>
<text x="125" y="784" class="muted" font-size="12">Fonte: capture_to_pclk_slow_coarse/summary.csv · 96 medições · o guard é uma margem experimental, não setup/hold nem Fmax.</text>
</svg>
